<svg width="20" height="17" viewBox="0 0 20 17" fill="none" xmlns="http://www.w3.org/2000/svg">
<g clip-path="url(#clip0_2_403)">
<path d="M6.31087 8.88811L7.13484 4.14902C6.79776 4.14902 6.23596 4.14902 6.23596 4.14902C5.82397 4.14902 5.2809 3.94664 5.11236 3.55874C5.05618 3.42382 4.94383 2.96846 5.63671 2.52997C5.88016 2.37819 6.04869 2.20953 6.06742 2.07461C6.10487 1.93969 6.06742 1.82164 5.95506 1.72045C5.82397 1.60239 5.52435 1.51807 5.14982 1.51807C4.51311 1.51807 4.06368 1.85537 4.02622 2.09148C3.98877 2.27699 4.15731 2.41191 4.28839 2.49624C4.68165 2.76608 4.77529 3.15398 4.53184 3.52501C4.26967 3.89604 3.7266 4.14902 3.14607 4.14902C3.14607 4.14902 2.56555 4.14902 2.22847 4.14902C2.15356 4.60438 0.917608 11.6877 0.823975 12.2443H5.76779C5.78652 12.0081 6.01124 10.6589 6.31087 8.88811Z" fill="#459BBE"/>
<path d="M12.9214 0H7.90267L7.22852 3.82838H8.08994C8.5581 3.82838 9.00754 3.64286 9.19481 3.35615C9.25099 3.27182 9.28844 3.1875 9.28844 3.12004C9.28844 2.96825 9.17608 2.83333 9.04499 2.76587C8.70791 2.54663 8.65174 2.31052 8.65174 2.14187C8.65174 2.10814 8.65174 2.07441 8.65174 2.05754C8.72664 1.65278 9.32589 1.21429 10.1311 1.21429C10.618 1.21429 10.9738 1.31548 11.1985 1.50099C11.3858 1.66964 11.4795 1.90576 11.4233 2.14187C11.3484 2.42857 11.03 2.66468 10.8427 2.78274C10.3559 3.08631 10.412 3.35615 10.4495 3.44048C10.5431 3.67659 10.9364 3.82838 11.236 3.82838H12.5469C14.3259 3.84524 15.2809 4.57043 14.9626 6.29067C14.6817 7.87599 13.3334 8.56746 11.7229 8.58432L11.0487 12.244H11.9851C15.9738 12.244 19.2135 9.93353 19.869 6.30754C20.6742 1.80456 17.4907 0 12.9214 0Z" fill="#235971"/>
<path d="M0.54307 13.8799H2.56555C3.42697 13.8799 3.63296 14.2678 3.57678 14.6388C3.5206 14.9255 3.31461 15.1448 2.92135 15.2797C3.40824 15.4483 3.5955 15.7013 3.5206 16.1061C3.42696 16.612 2.94007 16.9831 2.30337 16.9831H0L0.54307 13.8799ZM1.87266 15.1785C2.26592 15.1785 2.45318 14.993 2.49063 14.7737C2.52809 14.5376 2.41573 14.369 2.02247 14.369H1.66667L1.51686 15.1785H1.87266ZM1.64794 16.5277C2.05992 16.5277 2.28464 16.3759 2.34082 16.0723C2.37828 15.8194 2.22846 15.6507 1.8352 15.6507H1.44195L1.29213 16.5277H1.64794Z" fill="#235971"/>
<path d="M6.32954 17.0168C5.8052 17.0505 5.54303 16.9999 5.43067 16.7975C5.14977 16.9493 4.85014 17.0336 4.51306 17.0336C3.91381 17.0336 3.70782 16.7638 3.764 16.4433C3.78273 16.2916 3.87636 16.1566 4.0449 16.0386C4.36325 15.7856 5.18722 15.7519 5.50557 15.5495C5.5243 15.3303 5.43067 15.2459 5.13104 15.2459C4.77523 15.2459 4.49433 15.3471 3.98872 15.6507L4.10108 14.9424C4.53179 14.6557 4.94377 14.5376 5.43067 14.5376C6.04864 14.5376 6.59172 14.7568 6.47936 15.364L6.367 16.0555C6.32954 16.2916 6.32954 16.3759 6.62917 16.3759L6.32954 17.0168ZM5.43067 15.9543C5.14977 16.106 4.62542 16.0892 4.56924 16.4096C4.55052 16.5614 4.64415 16.6795 4.81269 16.6795C4.98123 16.6795 5.18722 16.612 5.33703 16.5108C5.31831 16.4602 5.33703 16.3928 5.35576 16.2916L5.43067 15.9543Z" fill="#235971"/>
<path d="M7.32207 14.5884H8.37076L8.31458 14.9089C8.65166 14.6559 8.8951 14.5547 9.23218 14.5547C9.8127 14.5547 10.0936 14.8751 9.99997 15.4148L9.71907 17.0001H8.67038L8.8951 15.6846C8.93256 15.4485 8.85765 15.3305 8.65166 15.3305C8.48312 15.3305 8.33331 15.4148 8.1835 15.5835L7.94005 16.9833H6.89136L7.32207 14.5884Z" fill="#235971"/>
<path d="M10.824 13.8799H11.8727L11.6105 15.4146L12.6218 14.5882H13.9139L12.6218 15.617L13.6517 16.9999H12.3221L11.5169 15.8868H11.4982L11.3109 16.9999H10.2622L10.824 13.8799Z" fill="#235971"/>
<path d="M0.54307 13.8799H2.56555C3.42697 13.8799 3.63296 14.2678 3.57678 14.6388C3.5206 14.9255 3.31461 15.1448 2.92135 15.2797C3.40824 15.4483 3.5955 15.7013 3.5206 16.1061C3.42696 16.612 2.94007 16.9831 2.30337 16.9831H0L0.54307 13.8799ZM1.87266 15.1785C2.26592 15.1785 2.45318 14.993 2.49063 14.7737C2.52809 14.5376 2.41573 14.369 2.02247 14.369H1.66667L1.51686 15.1785H1.87266ZM1.64794 16.5277C2.05992 16.5277 2.28464 16.3759 2.34082 16.0723C2.37828 15.8194 2.22846 15.6507 1.8352 15.6507H1.44195L1.29213 16.5277H1.64794Z" fill="#235971"/>
<path d="M6.32954 17.0168C5.8052 17.0505 5.54303 16.9999 5.43067 16.7975C5.14977 16.9493 4.85014 17.0336 4.51306 17.0336C3.91381 17.0336 3.70782 16.7638 3.764 16.4433C3.78273 16.2916 3.87636 16.1566 4.0449 16.0386C4.36325 15.7856 5.18722 15.7519 5.50557 15.5495C5.5243 15.3303 5.43067 15.2459 5.13104 15.2459C4.77523 15.2459 4.49433 15.3471 3.98872 15.6507L4.10108 14.9424C4.53179 14.6557 4.94377 14.5376 5.43067 14.5376C6.04864 14.5376 6.59172 14.7568 6.47936 15.364L6.367 16.0555C6.32954 16.2916 6.32954 16.3759 6.62917 16.3759L6.32954 17.0168ZM5.43067 15.9543C5.14977 16.106 4.62542 16.0892 4.56924 16.4096C4.55052 16.5614 4.64415 16.6795 4.81269 16.6795C4.98123 16.6795 5.18722 16.612 5.33703 16.5108C5.31831 16.4602 5.33703 16.3928 5.35576 16.2916L5.43067 15.9543Z" fill="#235971"/>
<path d="M7.32207 14.5884H8.37076L8.31458 14.9089C8.65166 14.6559 8.8951 14.5547 9.23218 14.5547C9.8127 14.5547 10.0936 14.8751 9.99997 15.4148L9.71907 17.0001H8.67038L8.8951 15.6846C8.93256 15.4485 8.85765 15.3305 8.65166 15.3305C8.48312 15.3305 8.33331 15.4148 8.1835 15.5835L7.94005 16.9833H6.89136L7.32207 14.5884Z" fill="#235971"/>
<path d="M10.824 13.8799H11.8727L11.6105 15.4146L12.6218 14.5882H13.9139L12.6218 15.617L13.6517 16.9999H12.3221L11.5169 15.8868H11.4982L11.3109 16.9999H10.2622L10.824 13.8799Z" fill="#235971"/>
<path d="M14.5318 13.8799H15.7491L15.206 16.9831H13.9888L14.5318 13.8799Z" fill="#459BBE"/>
<path d="M16.3295 13.8799H18.0524C19.382 13.8799 19.7752 14.7569 19.6441 15.4821C19.5318 16.1904 18.8951 16.9999 17.734 16.9999H15.8052L16.3295 13.8799ZM17.4531 16.2579C18.0336 16.2579 18.3707 16.0049 18.4644 15.4483C18.5393 15.0436 18.3894 14.6388 17.7527 14.6388H17.4157L17.1348 16.2747L17.4531 16.2579Z" fill="#459BBE"/>
</g>
<defs>
<clipPath id="clip0_2_403">
<rect width="20" height="17" fill="white"/>
</clipPath>
</defs>
</svg>
