<svg width="13" height="12" viewBox="0 0 13 12" fill="none" xmlns="http://www.w3.org/2000/svg">
<path d="M11.6013 12C12.1536 12 12.6013 11.5523 12.6013 11C12.6013 10.4477 12.1536 10 11.6013 10V12ZM1.2627 10C0.710411 10 0.262695 10.4477 0.262695 11C0.262695 11.5523 0.710411 12 1.2627 12V10ZM6.43202 8.45192L5.90889 9.30417C6.22982 9.50117 6.63422 9.50117 6.95516 9.30417L6.43202 8.45192ZM11.2629 6.65994C11.7336 6.37102 11.881 5.75524 11.592 5.28456C11.3031 4.81387 10.6873 4.66652 10.2167 4.95544L11.2629 6.65994ZM2.64738 4.95544C2.1767 4.66652 1.56092 4.81387 1.272 5.28456C0.98308 5.75524 1.13043 6.37102 1.60111 6.65994L2.64738 4.95544ZM7.43202 1C7.43202 0.447715 6.98431 0 6.43202 0C5.87974 0 5.43202 0.447715 5.43202 1H7.43202ZM11.6013 10H1.2627V12H11.6013V10ZM6.95516 9.30417L11.2629 6.65994L10.2167 4.95544L5.90889 7.59967L6.95516 9.30417ZM6.95516 7.59967L2.64738 4.95544L1.60111 6.65994L5.90889 9.30417L6.95516 7.59967ZM7.43202 8.45192V1H5.43202V8.45192H7.43202Z" fill="#057382"/>
</svg>
