<svg width="17" height="13" viewBox="0 0 17 13" fill="none" xmlns="http://www.w3.org/2000/svg">
<path d="M1.00401 4.12899C0.952999 3.63584 1.39484 3.21064 1.95831 3.21064H15.1914C15.7549 3.21064 16.1967 3.63584 16.1457 4.12899L15.3617 11.7079C15.3168 12.1417 14.903 12.4738 14.4074 12.4738H2.74231C2.24671 12.4738 1.83289 12.1417 1.78802 11.7079L1.00401 4.12899Z" fill="url(#paint0_linear_2_554)"/>
<path d="M1.86724 1.52643V3.21064H15.2825V2.78959C15.2825 2.32451 14.8534 1.94748 14.3242 1.94748H7.6447C7.32742 1.94748 7.03072 1.80947 6.85231 1.5789L6.44531 1.05291C6.26691 0.822339 5.9702 0.684326 5.65293 0.684326H2.82547C2.29626 0.684326 1.86724 1.06135 1.86724 1.52643Z" fill="url(#paint1_linear_2_554)"/>
<path d="M1.00401 4.12899C0.952999 3.63584 1.39484 3.21064 1.95831 3.21064H15.1914C15.7549 3.21064 16.1967 3.63584 16.1457 4.12899L15.3617 11.7079C15.3168 12.1417 14.903 12.4738 14.4074 12.4738H2.74231C2.24671 12.4738 1.83289 12.1417 1.78802 11.7079L1.00401 4.12899Z" stroke="#75A8D7"/>
<path d="M1.86724 1.52643V3.21064H15.2825V2.78959C15.2825 2.32451 14.8534 1.94748 14.3242 1.94748H7.6447C7.32742 1.94748 7.03072 1.80947 6.85231 1.5789L6.44531 1.05291C6.26691 0.822339 5.9702 0.684326 5.65293 0.684326H2.82547C2.29626 0.684326 1.86724 1.06135 1.86724 1.52643Z" stroke="#75A8D7"/>
<defs>
<linearGradient id="paint0_linear_2_554" x1="8.57485" y1="0.684326" x2="8.57485" y2="12.4738" gradientUnits="userSpaceOnUse">
<stop stop-color="#E6F0FF"/>
<stop offset="1" stop-color="#CADCF5"/>
</linearGradient>
<linearGradient id="paint1_linear_2_554" x1="8.57485" y1="0.684326" x2="8.57485" y2="12.4738" gradientUnits="userSpaceOnUse">
<stop stop-color="#E6F0FF"/>
<stop offset="1" stop-color="#CADCF5"/>
</linearGradient>
</defs>
</svg>
