<svg width="55" height="37" viewBox="0 0 55 37" fill="none" xmlns="http://www.w3.org/2000/svg">
<path fill-rule="evenodd" clip-rule="evenodd" d="M48.5492 11.1865L52.9817 14.2358L43.3997 20.8278L53.7204 27.9279L49.2879 30.9772L34.5347 20.8278L48.5492 11.1865Z" fill="#55C6FF"/>
<path fill-rule="evenodd" clip-rule="evenodd" d="M38.3716 3.84251L33.9524 0.860601L23.6625 7.80376L13.3727 0.8606L8.95348 3.84251L23.6625 13.7676L38.3716 3.84251Z" fill="black"/>
<path fill-rule="evenodd" clip-rule="evenodd" d="M37.0926 4.33948L32.757 1.35757L23.3842 7.80376L13.2891 0.8606L8.95347 3.84251L23.3842 13.7676L37.0926 4.33948Z" fill="#55C6FF"/>
<path fill-rule="evenodd" clip-rule="evenodd" d="M52.4658 14.8568C53.8655 13.9152 53.8655 12.3885 52.4658 11.4469L51.3797 10.7162L39.065 10.6229L38.7081 2.19158L37.984 1.70446C36.5844 0.762853 34.3151 0.762854 32.9154 1.70446L32.9209 14.7563L52.4658 14.8568Z" fill="#9A71FF"/>
<path d="M38.7073 3.65379L38.7075 2.1925L37.9834 1.70537C36.5837 0.763767 34.3144 0.763768 32.9148 1.70538L32.9146 7.55078L38.7073 3.65379Z" fill="#584DE2"/>
<path d="M49.5684 10.9604L51.7405 10.9603L52.4646 11.4474C53.8643 12.389 53.8643 13.9157 52.4646 14.8573L43.7756 14.8574L49.5684 10.9604Z" fill="#584DE2"/>
<path fill-rule="evenodd" clip-rule="evenodd" d="M16.6274 32.6605L21.1601 35.6424L30.9588 29.1962L41.5128 36.1394L46.0455 33.1575L30.9588 23.2324L16.6274 32.6605Z" fill="#51E5A5"/>
<path fill-rule="evenodd" clip-rule="evenodd" d="M5.71186 25.8135L1.27937 22.8405L11.6001 15.9181L1.27937 8.99576L5.71186 6.02278L20.4651 15.9181L5.71186 25.8135Z" fill="black"/>
<path fill-rule="evenodd" clip-rule="evenodd" d="M6.45058 24.9531L2.01809 22.0364L11.6001 15.731L1.27937 8.93962L5.71186 6.02289L20.4651 15.731L6.45058 24.9531Z" fill="#51E5A5"/>
<path fill-rule="evenodd" clip-rule="evenodd" d="M22.0862 35.2946C20.6865 36.2362 18.4172 36.2362 17.0175 35.2946L15.9314 34.5639L15.7927 26.2793L3.25982 26.0392L2.53573 25.5521C1.13607 24.6105 1.13607 23.0838 2.53573 22.1422L21.9368 22.1459L22.0862 35.2946Z" fill="#F4E12F"/>
<path d="M5.43067 26.0396L3.25851 26.0397L2.53442 25.5526C1.13475 24.611 1.13476 23.0843 2.53442 22.1427L11.2234 22.1426L5.43067 26.0396Z" fill="#24B57E"/>
<path d="M16.2922 33.3462L16.292 34.8075L17.0161 35.2946C18.4158 36.2362 20.6851 36.2362 22.0847 35.2946L22.085 29.4492L16.2922 33.3462Z" fill="#24B57E"/>
</svg>
