<svg width="389" height="389" viewBox="0 0 389 389" fill="none" xmlns="http://www.w3.org/2000/svg">
<g filter="url(#filter0_d_2_2129)">
<path fill-rule="evenodd" clip-rule="evenodd" d="M251.668 87.6627V235.872C251.668 241.522 247.454 246.228 241.976 246.696L104.443 258.454C98.6269 258.951 93.5201 254.508 93.0364 248.53C93.0121 248.231 93 247.93 93 247.63L93 75.9049C93 69.906 97.731 65.043 103.567 65.043C103.859 65.043 104.151 65.0554 104.443 65.0803L241.976 76.8382C247.454 77.3065 251.668 82.0129 251.668 87.6627Z" fill="white"/>
</g>
<g filter="url(#filter1_d_2_2129)">
<path fill-rule="evenodd" clip-rule="evenodd" d="M289.846 78.7205V245.679C289.846 252.035 285.107 257.329 278.945 257.857L124.22 271.1C117.677 271.66 111.931 266.662 111.386 259.936C111.359 259.599 111.345 259.261 111.345 258.922L111.345 65.4774C111.345 58.7287 116.668 53.2578 123.233 53.2578C123.562 53.2578 123.891 53.2719 124.22 53.3L278.945 66.543C285.107 67.0704 289.846 72.3649 289.846 78.7205Z" fill="white"/>
</g>
<g filter="url(#filter2_d_2_2129)">
<path fill-rule="evenodd" clip-rule="evenodd" d="M332.611 254.714C332.611 261.776 327.345 267.659 320.498 268.244L148.581 282.953C148.217 282.984 147.851 283 147.486 283C140.191 283 134.277 276.921 134.277 269.423L134.277 54.5781C134.277 54.2022 134.292 53.8265 134.322 53.4519C134.928 45.9792 141.311 40.4256 148.581 41.0475L320.498 55.7563C327.345 56.3421 332.611 62.225 332.611 69.2869V254.714Z" fill="white"/>
</g>
<path fill-rule="evenodd" clip-rule="evenodd" d="M192.751 182.489C193.932 182.723 195.263 183.631 196.411 185.017C198.058 184.347 199.648 184.188 200.798 184.551C200.57 185.765 199.687 187.133 198.338 188.313C198.99 190.006 199.145 191.64 198.791 192.822C197.61 192.588 196.28 191.68 195.131 190.294C193.484 190.964 191.895 191.123 190.745 190.76C190.973 189.546 191.856 188.178 193.204 186.998C192.553 185.305 192.398 183.671 192.751 182.489ZM178.647 153.846C179.622 154.572 180.454 155.972 180.925 157.727C182.693 157.836 184.199 158.382 185.092 159.211C184.387 160.212 183.024 161.068 181.317 161.552C181.211 163.37 180.68 164.918 179.873 165.835C178.899 165.11 178.066 163.709 177.595 161.954C175.827 161.846 174.321 161.3 173.429 160.471C174.134 159.469 175.497 158.613 177.204 158.129C177.31 156.312 177.841 154.764 178.647 153.846ZM286.488 139.327C287.361 140.875 287.659 143.23 287.277 145.835C289.552 147.049 291.23 148.681 291.936 150.317C290.429 151.214 288.138 151.521 285.604 151.128C284.424 153.466 282.835 155.191 281.244 155.917C280.372 154.368 280.073 152.013 280.455 149.408C278.18 148.195 276.502 146.562 275.797 144.927C277.303 144.03 279.594 143.723 282.128 144.116C283.308 141.777 284.897 140.052 286.488 139.327Z" fill="#191A32"/>
<path opacity="0.1" d="M222.448 176.49L223.068 176.634C243.766 181.413 261.66 180.452 263.037 174.489C264.414 168.526 248.751 159.818 228.053 155.039L226.815 154.76C206.647 150.301 189.433 151.341 188.084 157.185C186.721 163.088 202.059 171.682 222.448 176.49Z" fill="black"/>
<path d="M279.167 91.2193L226.832 143.97L204.836 121.798C201.9 118.839 197.139 118.839 194.202 121.798C192.792 123.22 192 125.147 192 127.157C192 129.168 192.792 131.095 194.202 132.517L222.742 161.284C224.982 163.541 228.613 163.542 230.854 161.286L289.795 101.938C291.206 100.517 291.999 98.5893 292 96.5791C292 94.5688 291.208 92.6407 289.798 91.2192C286.862 88.2602 282.103 88.2603 279.167 91.2193Z" fill="#13AA98"/>
<defs>
<filter id="filter0_d_2_2129" x="-17" y="5.04297" width="324.668" height="359.449" filterUnits="userSpaceOnUse" color-interpolation-filters="sRGB">
<feFlood flood-opacity="0" result="BackgroundImageFix"/>
<feColorMatrix in="SourceAlpha" type="matrix" values="0 0 0 0 0 0 0 0 0 0 0 0 0 0 0 0 0 0 127 0" result="hardAlpha"/>
<feOffset dx="-27" dy="23"/>
<feGaussianBlur stdDeviation="41.5"/>
<feColorMatrix type="matrix" values="0 0 0 0 0.254902 0 0 0 0 0.384314 0 0 0 0 0.662745 0 0 0 0.237134 0"/>
<feBlend mode="normal" in2="BackgroundImageFix" result="effect1_dropShadow_2_2129"/>
<feBlend mode="normal" in="SourceGraphic" in2="effect1_dropShadow_2_2129" result="shape"/>
</filter>
<filter id="filter1_d_2_2129" x="1.34534" y="-6.74219" width="344.501" height="383.885" filterUnits="userSpaceOnUse" color-interpolation-filters="sRGB">
<feFlood flood-opacity="0" result="BackgroundImageFix"/>
<feColorMatrix in="SourceAlpha" type="matrix" values="0 0 0 0 0 0 0 0 0 0 0 0 0 0 0 0 0 0 127 0" result="hardAlpha"/>
<feOffset dx="-27" dy="23"/>
<feGaussianBlur stdDeviation="41.5"/>
<feColorMatrix type="matrix" values="0 0 0 0 0.254902 0 0 0 0 0.384314 0 0 0 0 0.662745 0 0 0 0.237134 0"/>
<feBlend mode="normal" in2="BackgroundImageFix" result="effect1_dropShadow_2_2129"/>
<feBlend mode="normal" in="SourceGraphic" in2="effect1_dropShadow_2_2129" result="shape"/>
</filter>
<filter id="filter2_d_2_2129" x="24.277" y="-19" width="364.334" height="408" filterUnits="userSpaceOnUse" color-interpolation-filters="sRGB">
<feFlood flood-opacity="0" result="BackgroundImageFix"/>
<feColorMatrix in="SourceAlpha" type="matrix" values="0 0 0 0 0 0 0 0 0 0 0 0 0 0 0 0 0 0 127 0" result="hardAlpha"/>
<feOffset dx="-27" dy="23"/>
<feGaussianBlur stdDeviation="41.5"/>
<feColorMatrix type="matrix" values="0 0 0 0 0.254902 0 0 0 0 0.384314 0 0 0 0 0.662745 0 0 0 0.237134 0"/>
<feBlend mode="normal" in2="BackgroundImageFix" result="effect1_dropShadow_2_2129"/>
<feBlend mode="normal" in="SourceGraphic" in2="effect1_dropShadow_2_2129" result="shape"/>
</filter>
</defs>
</svg>
